<svg width="182" height="39" viewBox="0 0 182 39" fill="none" xmlns="http://www.w3.org/2000/svg">
<path d="M9.464 28.256C6.62667 28.256 4.35467 27.7227 2.648 26.656C0.941333 25.568 0.0880001 23.9147 0.0880001 21.696C0.0880001 20.5227 0.290667 19.6267 0.696 19.008C1.10133 18.3893 1.69867 18.08 2.488 18.08C3.064 18.08 3.53333 18.2293 3.896 18.528C4.25867 18.8267 4.44 19.2107 4.44 19.68C4.44 20.1067 4.408 20.48 4.344 20.8C4.344 20.8853 4.32267 21.0347 4.28 21.248C4.25867 21.4613 4.248 21.6853 4.248 21.92C4.248 22.88 4.728 23.5947 5.688 24.064C6.66933 24.5333 8.03467 24.768 9.784 24.768C11.5973 24.768 13.016 24.448 14.04 23.808C15.064 23.1467 15.576 22.2293 15.576 21.056C15.576 20.3307 15.3413 19.712 14.872 19.2C14.4027 18.6667 13.816 18.2293 13.112 17.888C12.408 17.5253 11.416 17.088 10.136 16.576C8.49333 15.936 7.14933 15.328 6.104 14.752C5.08 14.176 4.19467 13.3973 3.448 12.416C2.72267 11.4133 2.36 10.176 2.36 8.704C2.36 7.168 2.76533 5.80267 3.576 4.608C4.408 3.41333 5.592 2.48533 7.128 1.824C8.68533 1.16267 10.5093 0.831999 12.6 0.831999C14.1573 0.831999 15.5867 1.06667 16.888 1.536C18.1893 1.984 19.224 2.67733 19.992 3.616C20.7813 4.55467 21.176 5.70667 21.176 7.072C21.176 8.416 20.9733 9.42933 20.568 10.112C20.1627 10.7947 19.5653 11.136 18.776 11.136C18.2213 11.136 17.752 10.9653 17.368 10.624C17.0053 10.2827 16.824 9.87733 16.824 9.408C16.824 9.00267 16.856 8.62933 16.92 8.288C16.984 7.648 17.016 7.24267 17.016 7.072C17.016 6.176 16.5787 5.49333 15.704 5.024C14.8293 4.55467 13.7413 4.32 12.44 4.32C10.6053 4.32 9.19733 4.66133 8.216 5.344C7.256 6.00533 6.776 6.944 6.776 8.16C6.776 8.97067 7.02133 9.664 7.512 10.24C8.024 10.816 8.65333 11.296 9.4 11.68C10.1467 12.064 11.192 12.5227 12.536 13.056C14.1573 13.7173 15.4587 14.3147 16.44 14.848C17.4213 15.3813 18.2533 16.1067 18.936 17.024C19.64 17.9413 19.992 19.072 19.992 20.416C19.992 22.9333 19.032 24.8747 17.112 26.24C15.2133 27.584 12.664 28.256 9.464 28.256ZM28.6793 28.16C27.8686 28.16 27.2926 27.7333 26.9513 26.88C26.6313 26.0267 26.4713 24.6613 26.4713 22.784C26.4713 20.0107 26.8659 17.376 27.6553 14.88C27.8473 14.2613 28.1566 13.8133 28.5833 13.536C29.0313 13.2373 29.6499 13.088 30.4393 13.088C30.8659 13.088 31.1646 13.1413 31.3353 13.248C31.5059 13.3547 31.5913 13.5573 31.5913 13.856C31.5913 14.1973 31.4313 14.9653 31.1113 16.16C30.8979 17.0133 30.7273 17.76 30.5993 18.4C30.4713 19.0187 30.3646 19.7973 30.2793 20.736C30.8553 19.072 31.5379 17.664 32.3273 16.512C33.1379 15.36 33.9593 14.5067 34.7913 13.952C35.6446 13.376 36.4446 13.088 37.1913 13.088C37.9379 13.088 38.4606 13.2587 38.7593 13.6C39.0793 13.9413 39.2393 14.464 39.2393 15.168C39.2393 15.8507 39.0366 17.088 38.6313 18.88C38.4606 19.648 38.3433 20.224 38.2793 20.608C39.3459 17.984 40.5299 16.0747 41.8313 14.88C43.1326 13.6853 44.3486 13.088 45.4793 13.088C46.8659 13.088 47.5593 13.7813 47.5593 15.168C47.5593 16 47.3246 17.504 46.8553 19.68C46.4499 21.536 46.2473 22.7627 46.2473 23.36C46.2473 24.2133 46.5566 24.64 47.1753 24.64C47.6019 24.64 48.1033 24.384 48.6793 23.872C49.2766 23.3387 50.0659 22.4853 51.0473 21.312C51.3033 21.0133 51.5913 20.864 51.9113 20.864C52.1886 20.864 52.4019 20.992 52.5513 21.248C52.7219 21.504 52.8073 21.856 52.8073 22.304C52.8073 23.1573 52.6046 23.8187 52.1993 24.288C51.2819 25.4187 50.2899 26.3467 49.2233 27.072C48.1779 27.7973 46.9833 28.16 45.6393 28.16C44.5513 28.16 43.7299 27.8507 43.1753 27.232C42.6206 26.592 42.3433 25.6747 42.3433 24.48C42.3433 23.8827 42.4926 22.816 42.7913 21.28C43.0686 19.936 43.2073 19.008 43.2073 18.496C43.2073 18.1547 43.0899 17.984 42.8553 17.984C42.5779 17.984 42.1833 18.3467 41.6713 19.072C41.1593 19.776 40.6473 20.7147 40.1353 21.888C39.6233 23.0613 39.2073 24.2987 38.8873 25.6C38.6526 26.624 38.3753 27.3067 38.0553 27.648C37.7566 27.9893 37.2659 28.16 36.5833 28.16C35.8793 28.16 35.3459 27.8293 34.9833 27.168C34.6419 26.4853 34.4713 25.664 34.4713 24.704C34.4713 23.8933 34.5779 22.72 34.7913 21.184C34.9619 19.8187 35.0473 18.9227 35.0473 18.496C35.0473 18.1547 34.9299 17.984 34.6953 17.984C34.3753 17.984 33.9699 18.368 33.4793 19.136C32.9886 19.904 32.5086 20.8853 32.0393 22.08C31.5913 23.2747 31.2286 24.448 30.9513 25.6C30.7166 26.6027 30.4393 27.2853 30.1193 27.648C29.8206 27.9893 29.3406 28.16 28.6793 28.16ZM57.9958 28.16C56.6731 28.16 55.6171 27.68 54.8278 26.72C54.0384 25.76 53.6438 24.5013 53.6438 22.944C53.6438 21.2373 54.0384 19.6267 54.8278 18.112C55.6171 16.576 56.6624 15.3493 57.9638 14.432C59.2864 13.4933 60.6838 13.024 62.1558 13.024C62.6251 13.024 62.9344 13.12 63.0838 13.312C63.2544 13.4827 63.3931 13.8027 63.4998 14.272C63.9478 14.1867 64.4171 14.144 64.9078 14.144C65.9531 14.144 66.4758 14.5173 66.4758 15.264C66.4758 15.712 66.3158 16.7787 65.9958 18.464C65.5051 20.9173 65.2598 22.624 65.2598 23.584C65.2598 23.904 65.3344 24.16 65.4838 24.352C65.6544 24.544 65.8678 24.64 66.1238 24.64C66.5291 24.64 67.0198 24.384 67.5958 23.872C68.1718 23.3387 68.9504 22.4853 69.9318 21.312C70.1878 21.0133 70.4758 20.864 70.7958 20.864C71.0731 20.864 71.2864 20.992 71.4358 21.248C71.6064 21.504 71.6918 21.856 71.6918 22.304C71.6918 23.1573 71.4891 23.8187 71.0838 24.288C70.2091 25.376 69.2811 26.2933 68.2998 27.04C67.3184 27.7867 66.3691 28.16 65.4518 28.16C64.7478 28.16 64.0971 27.9253 63.4998 27.456C62.9238 26.9653 62.4864 26.304 62.1878 25.472C61.0784 27.264 59.6811 28.16 57.9958 28.16ZM59.1478 24.928C59.6171 24.928 60.0651 24.6507 60.4918 24.096C60.9184 23.5413 61.2278 22.8053 61.4198 21.888L62.6038 16C61.7078 16.0213 60.8758 16.3627 60.1078 17.024C59.3611 17.664 58.7638 18.5173 58.3158 19.584C57.8678 20.6507 57.6438 21.7813 57.6438 22.976C57.6438 23.6373 57.7718 24.128 58.0278 24.448C58.3051 24.768 58.6784 24.928 59.1478 24.928ZM85.859 17.472C86.3283 17.472 86.723 17.6427 87.043 17.984C87.3843 18.304 87.555 18.7093 87.555 19.2C87.555 19.4773 87.491 19.776 87.363 20.096C87.0217 20.8853 86.5417 21.5467 85.923 22.08C85.3043 22.6133 84.6217 22.88 83.875 22.88C83.2777 22.88 82.7657 22.6667 82.339 22.24C81.9337 21.8133 81.731 21.2373 81.731 20.512C81.731 20.1067 81.7523 19.6693 81.795 19.2C81.8377 18.8587 81.859 18.624 81.859 18.496C81.859 18.3253 81.8163 18.1973 81.731 18.112C81.667 18.0267 81.5817 17.984 81.475 17.984C81.1763 17.984 80.771 18.3467 80.259 19.072C79.747 19.776 79.235 20.7147 78.723 21.888C78.211 23.0613 77.795 24.2987 77.475 25.6C77.2403 26.624 76.9737 27.3067 76.675 27.648C76.3763 27.9893 75.8857 28.16 75.203 28.16C74.3923 28.16 73.8163 27.7333 73.475 26.88C73.155 26.0267 72.995 24.6613 72.995 22.784C72.995 20.0107 73.3897 17.376 74.179 14.88C74.371 14.2613 74.6803 13.8133 75.107 13.536C75.555 13.2373 76.1737 13.088 76.963 13.088C77.3897 13.088 77.6883 13.1413 77.859 13.248C78.0297 13.3547 78.115 13.5573 78.115 13.856C78.115 14.1973 77.955 14.9653 77.635 16.16C77.4217 17.0133 77.251 17.76 77.123 18.4C76.995 19.04 76.8883 19.8293 76.803 20.768C77.507 18.9333 78.2963 17.44 79.171 16.288C80.0457 15.136 80.899 14.3147 81.731 13.824C82.563 13.3333 83.3203 13.088 84.003 13.088C84.6217 13.088 85.091 13.2693 85.411 13.632C85.7523 13.9733 85.923 14.4853 85.923 15.168C85.923 15.5733 85.8057 16.3413 85.571 17.472H85.859ZM106.887 20.864C107.164 20.864 107.377 20.992 107.527 21.248C107.697 21.504 107.783 21.856 107.783 22.304C107.783 23.1573 107.58 23.8187 107.175 24.288C106.257 25.4187 105.255 26.3467 104.167 27.072C103.079 27.7973 101.831 28.16 100.423 28.16C96.0708 28.16 93.8948 25.0987 93.8948 18.976C93.8948 18.0373 93.9268 17.088 93.9908 16.128H92.7428C92.1028 16.128 91.6654 16.0107 91.4308 15.776C91.2174 15.5413 91.1108 15.168 91.1108 14.656C91.1108 13.4613 91.5908 12.864 92.5508 12.864H94.3748C94.7374 10.5173 95.2921 8.37333 96.0388 6.432C96.7854 4.49067 97.6814 2.944 98.7268 1.792C99.7934 0.639999 100.935 0.0639992 102.151 0.0639992C103.047 0.0639992 103.751 0.458666 104.263 1.248C104.775 2.03733 105.031 3.02933 105.031 4.224C105.031 7.53067 103.644 10.4107 100.871 12.864H104.455C104.796 12.864 105.041 12.9387 105.191 13.088C105.34 13.2373 105.415 13.5147 105.415 13.92C105.415 15.392 104.209 16.128 101.799 16.128H97.8948C97.8521 17.1947 97.8308 18.0267 97.8308 18.624C97.8308 20.8427 98.0868 22.4 98.5988 23.296C99.1321 24.192 99.9641 24.64 101.095 24.64C102.012 24.64 102.823 24.3627 103.527 23.808C104.231 23.2533 105.063 22.4213 106.023 21.312C106.279 21.0133 106.567 20.864 106.887 20.864ZM101.287 3.136C100.967 3.136 100.604 3.54133 100.199 4.352C99.8148 5.14133 99.4414 6.25067 99.0788 7.68C98.7374 9.088 98.4494 10.656 98.2148 12.384C99.4734 11.296 100.412 10.08 101.031 8.736C101.671 7.37067 101.991 6.13333 101.991 5.024C101.991 3.76533 101.756 3.136 101.287 3.136Z" fill="#F14878"/>
<path d="M135.001 31.072C135.215 31.072 135.375 31.1787 135.481 31.392C135.609 31.6267 135.673 31.9253 135.673 32.288C135.673 32.9707 135.492 33.6427 135.129 34.304C134.404 35.6267 133.444 36.64 132.249 37.344C131.076 38.0693 129.871 38.432 128.633 38.432C127.375 38.432 126.319 38.2293 125.465 37.824C124.612 37.44 123.887 36.8533 123.289 36.064C122.692 35.296 122.116 34.272 121.561 32.992C120.985 31.6693 120.505 30.6773 120.121 30.016C119.759 29.376 119.375 28.9067 118.969 28.608C118.564 28.3093 118.041 28.096 117.401 27.968C115.033 27.4987 113.124 26.3253 111.673 24.448C110.244 22.5707 109.529 20.1493 109.529 17.184C109.529 13.9413 110.116 11.0827 111.289 8.608C112.484 6.13333 114.095 4.224 116.121 2.88C118.169 1.536 120.431 0.863998 122.905 0.863998C124.804 0.863998 126.511 1.29067 128.025 2.144C129.561 2.99733 130.777 4.256 131.673 5.92C132.569 7.56267 133.017 9.536 133.017 11.84C133.017 14.528 132.612 16.9493 131.801 19.104C130.991 21.2587 129.871 23.0507 128.441 24.48C127.012 25.9093 125.369 26.9227 123.513 27.52C124.047 27.8187 124.505 28.256 124.889 28.832C125.295 29.408 125.721 30.24 126.169 31.328C126.66 32.5227 127.183 33.376 127.737 33.888C128.313 34.4 129.017 34.656 129.849 34.656C130.553 34.656 131.236 34.4107 131.897 33.92C132.559 33.4507 133.305 32.672 134.137 31.584C134.393 31.2427 134.681 31.072 135.001 31.072ZM119.961 24.384C121.625 24.384 123.087 23.872 124.345 22.848C125.625 21.824 126.607 20.4053 127.289 18.592C127.972 16.7573 128.313 14.688 128.313 12.384C128.313 9.84533 127.78 7.92533 126.713 6.624C125.647 5.30133 124.271 4.64 122.585 4.64C120.964 4.64 119.513 5.16267 118.233 6.208C116.975 7.232 115.993 8.65067 115.289 10.464C114.585 12.2773 114.233 14.336 114.233 16.64C114.233 19.1787 114.767 21.1093 115.833 22.432C116.9 23.7333 118.276 24.384 119.961 24.384ZM141.934 28.16C140.974 28.16 140.184 27.7227 139.566 26.848C138.968 25.952 138.67 24.8427 138.67 23.52C138.67 21.92 138.776 20.4587 138.99 19.136C139.203 17.792 139.555 16.3733 140.046 14.88C140.259 14.24 140.558 13.7813 140.942 13.504C141.326 13.2267 141.934 13.088 142.766 13.088C143.235 13.088 143.555 13.1627 143.726 13.312C143.918 13.4613 144.014 13.6853 144.014 13.984C144.014 14.1547 143.896 14.7307 143.662 15.712C143.448 16.5013 143.278 17.216 143.15 17.856C142.723 20.096 142.51 21.5893 142.51 22.336C142.51 22.784 142.563 23.104 142.67 23.296C142.776 23.4667 142.947 23.552 143.182 23.552C143.502 23.552 143.896 23.232 144.366 22.592C144.856 21.952 145.368 20.9813 145.902 19.68C146.456 18.3787 146.99 16.7787 147.502 14.88C147.672 14.24 147.928 13.7813 148.27 13.504C148.632 13.2267 149.166 13.088 149.87 13.088C150.36 13.088 150.702 13.152 150.894 13.28C151.086 13.3867 151.182 13.6 151.182 13.92C151.182 14.4533 150.915 15.9147 150.382 18.304C149.784 21.0347 149.486 22.72 149.486 23.36C149.486 23.7653 149.571 24.0853 149.742 24.32C149.912 24.5333 150.136 24.64 150.414 24.64C150.84 24.64 151.342 24.384 151.918 23.872C152.515 23.3387 153.304 22.4853 154.286 21.312C154.542 21.0133 154.83 20.864 155.15 20.864C155.427 20.864 155.64 20.992 155.79 21.248C155.96 21.504 156.046 21.856 156.046 22.304C156.046 23.1573 155.843 23.8187 155.438 24.288C154.52 25.4187 153.528 26.3467 152.462 27.072C151.416 27.7973 150.222 28.16 148.878 28.16C147.854 28.16 147.096 27.7653 146.606 26.976C146.136 26.1867 145.902 25.0773 145.902 23.648C145.539 25.0987 144.995 26.2187 144.27 27.008C143.544 27.776 142.766 28.16 141.934 28.16ZM161.483 10.976C160.587 10.976 159.915 10.7733 159.467 10.368C159.019 9.94133 158.795 9.35467 158.795 8.608C158.795 7.86133 159.083 7.24267 159.659 6.752C160.256 6.24 160.992 5.984 161.867 5.984C162.656 5.984 163.296 6.176 163.787 6.56C164.278 6.944 164.523 7.488 164.523 8.192C164.523 9.04533 164.246 9.728 163.691 10.24C163.136 10.7307 162.4 10.976 161.483 10.976ZM161.227 28.16C159.84 28.16 158.827 27.6693 158.187 26.688C157.568 25.7067 157.259 24.4053 157.259 22.784C157.259 21.824 157.376 20.5973 157.611 19.104C157.867 17.5893 158.187 16.1813 158.571 14.88C158.763 14.1973 159.019 13.728 159.339 13.472C159.659 13.216 160.171 13.088 160.875 13.088C161.963 13.088 162.507 13.4507 162.507 14.176C162.507 14.7093 162.304 15.9467 161.899 17.888C161.387 20.2347 161.131 21.824 161.131 22.656C161.131 23.296 161.216 23.7867 161.387 24.128C161.558 24.4693 161.846 24.64 162.251 24.64C162.635 24.64 163.115 24.3733 163.691 23.84C164.267 23.3067 165.035 22.464 165.995 21.312C166.251 21.0133 166.539 20.864 166.859 20.864C167.136 20.864 167.35 20.992 167.499 21.248C167.67 21.504 167.755 21.856 167.755 22.304C167.755 23.1573 167.552 23.8187 167.147 24.288C165.035 26.8693 163.062 28.16 161.227 28.16ZM179.95 24.512C180.419 24.4907 180.771 24.6613 181.006 25.024C181.262 25.3653 181.39 25.792 181.39 26.304C181.39 26.8373 181.262 27.3067 181.006 27.712C180.771 28.1173 180.441 28.32 180.014 28.32C179.246 28.32 178.521 28.3093 177.838 28.288C177.177 28.2667 176.59 28.2453 176.078 28.224C174.115 28.1387 172.729 28.096 171.918 28.096C171.641 28.096 171.235 28.192 170.702 28.384C170.019 28.5973 169.55 28.704 169.294 28.704C168.163 28.704 167.598 27.9787 167.598 26.528C167.598 25.5467 167.95 24.4373 168.654 23.2C169.358 21.9413 170.275 20.7253 171.406 19.552C172.537 18.3787 173.71 17.3973 174.926 16.608L170.414 16.736C169.945 16.7573 169.582 16.5973 169.326 16.256C169.091 15.8933 168.974 15.4667 168.974 14.976C168.974 14.464 169.091 14.016 169.326 13.632C169.582 13.2267 169.923 13.024 170.35 13.024C171.289 13.024 172.451 13.0987 173.838 13.248C174.073 13.2693 174.574 13.312 175.342 13.376C176.131 13.44 176.857 13.472 177.518 13.472C177.731 13.472 178.137 13.3867 178.734 13.216C178.841 13.1947 179.043 13.1413 179.342 13.056C179.662 12.9707 179.929 12.928 180.142 12.928C180.483 12.928 180.761 13.0773 180.974 13.376C181.209 13.6747 181.326 14.1333 181.326 14.752C181.326 15.4347 181.155 15.9787 180.814 16.384C180.494 16.7893 180.003 17.152 179.342 17.472C178.595 17.8133 177.721 18.4 176.718 19.232C175.715 20.064 174.766 20.992 173.87 22.016C172.974 23.0187 172.313 23.968 171.886 24.864L179.95 24.512Z" fill="#209CEE"/>
</svg>
